<svg width="27" height="30" viewBox="0 0 27 30" fill="none" xmlns="http://www.w3.org/2000/svg">
<path d="M11.6242 1.04411C12.2423 -0.348037 14.2181 -0.348037 14.8363 1.04411L17.1218 6.19105C17.4312 6.88801 18.1549 7.30581 18.9132 7.22536L24.5134 6.63117C26.0281 6.47046 27.016 8.18151 26.1194 9.41294L22.8048 13.9657C22.3559 14.5822 22.3559 15.4178 22.8048 16.0343L26.1194 20.5871C27.016 21.8185 26.0281 23.5295 24.5134 23.3688L18.9132 22.7746C18.1549 22.6942 17.4312 23.112 17.1218 23.8089L14.8363 28.9559C14.2181 30.348 12.2423 30.348 11.6242 28.9559L9.33869 23.8089C9.0292 23.112 8.30554 22.6942 7.54722 22.7746L1.94709 23.3688C0.43237 23.5295 -0.555505 21.8185 0.341041 20.5871L3.65568 16.0343C4.10452 15.4178 4.10452 14.5822 3.65568 13.9657L0.34104 9.41294C-0.555505 8.18151 0.43237 6.47046 1.9471 6.63117L7.54722 7.22536C8.30554 7.30581 9.0292 6.88801 9.33869 6.19105L11.6242 1.04411Z" fill="#32E7B1"/>
<path fillrule="evenodd" clipRule="evenodd" d="M19.4129 11.212C19.779 11.5781 19.779 12.1717 19.4129 12.5378L11.9129 20.0378C11.5468 20.4039 10.9532 20.4039 10.5871 20.0378L6.83709 16.2878C6.47097 15.9217 6.47097 15.3281 6.83709 14.962C7.2032 14.5958 7.7968 14.5958 8.16291 14.962L11.25 18.0491L18.0871 11.212C18.4532 10.8458 19.0468 10.8458 19.4129 11.212Z" fill="white"/>
</svg>
