<svg width="22" height="22" viewBox="0 0 22 22" fill="none" xmlns="http://www.w3.org/2000/svg">
<path fillrule="evenodd" clipRule="evenodd" d="M6.14722 2.49142C6.9832 2.42471 7.77684 2.09597 8.41515 1.55201C9.90469 0.28263 12.0955 0.28263 13.585 1.55201C14.2234 2.09597 15.017 2.42471 15.853 2.49142C17.8038 2.6471 19.353 4.19624 19.5087 6.14709C19.5754 6.98308 19.9041 7.77672 20.4481 8.41502C21.7174 9.90457 21.7174 12.0954 20.4481 13.5849C19.9041 14.2232 19.5754 15.0169 19.5087 15.8529C19.353 17.8037 17.8038 19.3529 15.853 19.5085C15.017 19.5752 14.2234 19.904 13.585 20.4479C12.0955 21.7173 9.90469 21.7173 8.41515 20.4479C7.77684 19.904 6.9832 19.5752 6.14722 19.5085C4.19636 19.3529 2.64722 17.8037 2.49154 15.8529C2.42483 15.0169 2.09609 14.2232 1.55213 13.5849C0.282752 12.0954 0.282752 9.90457 1.55213 8.41502C2.09609 7.77672 2.42483 6.98308 2.49154 6.14709C2.64722 4.19624 4.19636 2.6471 6.14722 2.49142ZM15.8193 9.31921C16.327 8.81153 16.327 7.98842 15.8193 7.48074C15.3117 6.97306 14.4885 6.97306 13.9809 7.48074L9.7001 11.7615L8.01934 10.0807C7.51165 9.57305 6.68854 9.57305 6.18086 10.0807C5.67318 10.5884 5.67318 11.4115 6.18086 11.9192L8.78086 14.5192C9.28854 15.0269 10.1117 15.0269 10.6193 14.5192L15.8193 9.31921Z" fill="#13111A"/>
</svg>
