<svg width="14" height="13" viewBox="0 0 14 13" fill="none" xmlns="http://www.w3.org/2000/svg">
<path d="M12.9681 4.70793C12.8825 4.44465 12.649 4.25825 12.3738 4.23335L8.62048 3.8926L7.13714 0.419814C7.02762 0.164672 6.77843 0 6.50107 0C6.22371 0 5.97442 0.164672 5.8656 0.419814L4.38226 3.8926L0.62834 4.23335C0.353159 4.25875 0.120139 4.44515 0.0340334 4.70793C-0.0515761 4.9712 0.0274862 5.25997 0.235608 5.4425L3.07282 7.93034L2.23627 11.6148C2.17506 11.8857 2.28022 12.1659 2.505 12.3284C2.62583 12.4162 2.76778 12.46 2.91023 12.46C3.03265 12.46 3.15516 12.4275 3.26458 12.362L6.50107 10.4268L9.73697 12.362C9.97436 12.5038 10.2728 12.4909 10.4971 12.3284C10.7219 12.1659 10.8271 11.8857 10.7659 11.6148L9.92932 7.93034L12.7665 5.4425C12.9746 5.25997 13.0537 4.9718 12.9681 4.70793Z" fill="#FFC947"/>
</svg>
