<svg width="15" height="15" viewBox="0 0 15 15" fill="none" xmlns="http://www.w3.org/2000/svg">
<path fillRule="evenodd" clipRule="evenodd" d="M7.65173 0.742188C3.80429 0.742188 0.708984 3.83749 0.708984 7.68493C0.708984 10.7513 2.70502 13.3548 5.45319 14.2805C5.80033 14.3384 5.91604 14.1359 5.91604 13.9334C5.91604 13.7598 5.91604 13.3259 5.91604 12.7474C3.97786 13.1813 3.57287 11.8217 3.57287 11.8217C3.25466 11.0117 2.79181 10.8092 2.79181 10.8092C2.15539 10.3752 2.84966 10.3752 2.84966 10.3752C3.54394 10.4331 3.92 11.0985 3.92 11.0985C4.52749 12.1688 5.53998 11.8506 5.94497 11.677C6.00283 11.2142 6.1764 10.9249 6.37889 10.7513C4.8457 10.5777 3.22573 9.97025 3.22573 7.30887C3.22573 6.55674 3.48608 5.92032 3.94893 5.45747C3.89108 5.2839 3.63072 4.58963 4.00679 3.60607C4.00679 3.60607 4.58535 3.4325 5.91604 4.32927C6.46568 4.18463 7.07317 4.09785 7.65173 4.09785C8.23029 4.09785 8.83778 4.18463 9.38742 4.32927C10.7181 3.4325 11.2967 3.60607 11.2967 3.60607C11.6727 4.5607 11.4413 5.25497 11.3545 5.45747C11.7884 5.94925 12.0777 6.55674 12.0777 7.30887C12.0777 9.97025 10.4578 10.5488 8.89564 10.7224C9.15599 10.9249 9.35849 11.3588 9.35849 11.9952C9.35849 12.9209 9.35849 13.6731 9.35849 13.9045C9.35849 14.078 9.4742 14.3095 9.85027 14.2516C12.5984 13.3548 14.5945 10.7513 14.5945 7.68493C14.5945 3.83749 11.4992 0.742188 7.65173 0.742188Z" fill="white"/>
</svg>
