<svg width="16" height="16" viewBox="0 0 16 16" fill="none" xmlns="http://www.w3.org/2000/svg">
<path d="M8.00221 2.05002C9.94011 2.05002 10.1696 2.05728 10.9352 2.09219C11.3954 2.09782 11.8514 2.18234 12.2831 2.34207C12.5962 2.46281 12.8805 2.64777 13.1178 2.88504C13.355 3.12232 13.54 3.40664 13.6607 3.71972C13.8205 4.15144 13.905 4.60736 13.9106 5.06765C13.9452 5.8332 13.9528 6.06269 13.9528 8.0006C13.9528 9.9385 13.9455 10.168 13.9106 10.9335C13.905 11.3938 13.8205 11.8498 13.6607 12.2815C13.54 12.5946 13.355 12.8789 13.1178 13.1161C12.8805 13.3534 12.5962 13.5384 12.2831 13.6591C11.8514 13.8189 11.3954 13.9034 10.9352 13.909C10.1699 13.9436 9.94045 13.9512 8.00221 13.9512C6.06396 13.9512 5.83446 13.9439 5.06926 13.909C4.60897 13.9034 4.15305 13.8189 3.72133 13.6591C3.40825 13.5384 3.12392 13.3534 2.88665 13.1161C2.64938 12.8789 2.46442 12.5946 2.34368 12.2815C2.18395 11.8498 2.09943 11.3938 2.0938 10.9335C2.05923 10.168 2.05163 9.9385 2.05163 8.0006C2.05163 6.06269 2.05889 5.8332 2.0938 5.06765C2.09943 4.60736 2.18395 4.15144 2.34368 3.71972C2.46442 3.40664 2.64938 3.12232 2.88665 2.88504C3.12392 2.64777 3.40825 2.46281 3.72133 2.34207C4.15305 2.18234 4.60897 2.09782 5.06926 2.09219C5.83481 2.05763 6.0643 2.05002 8.00221 2.05002ZM8.00221 0.742188C6.03216 0.742188 5.784 0.750482 5.00981 0.785736C4.40741 0.797718 3.8114 0.911778 3.24714 1.12306C2.76309 1.30544 2.32467 1.59123 1.96246 1.96051C1.59285 2.32285 1.30681 2.76152 1.12432 3.24587C0.913039 3.81014 0.79898 4.40614 0.786998 5.00855C0.752436 5.78205 0.744141 6.03021 0.744141 8.00025C0.744141 9.9703 0.752436 10.2185 0.787689 10.9926C0.799671 11.5951 0.913731 12.1911 1.12502 12.7553C1.3073 13.2396 1.5931 13.6783 1.96246 14.0407C2.32487 14.41 2.76353 14.6958 3.24783 14.8781C3.81209 15.0894 4.4081 15.2035 5.0105 15.2155C5.78469 15.25 6.03181 15.259 8.0029 15.259C9.97398 15.259 10.2211 15.2507 10.9953 15.2155C11.5977 15.2035 12.1937 15.0894 12.758 14.8781C13.24 14.6913 13.6777 14.4059 14.0431 14.0403C14.4085 13.6746 14.6936 13.2367 14.8801 12.7546C15.0914 12.1904 15.2054 11.5944 15.2174 10.992C15.252 10.2185 15.2603 9.9703 15.2603 8.00025C15.2603 6.03021 15.252 5.78205 15.2167 5.00786C15.2047 4.40545 15.0907 3.80944 14.8794 3.24518C14.6971 2.76089 14.4113 2.32222 14.042 1.95981C13.6795 1.59046 13.2409 1.30466 12.7566 1.12237C12.1923 0.911086 11.5963 0.797027 10.9939 0.785045C10.2204 0.750482 9.97225 0.742188 8.00221 0.742188Z" fill="white"/>
<path d="M8.00453 4.27441C7.26737 4.27441 6.54675 4.49301 5.93382 4.90256C5.32089 5.31211 4.84316 5.89421 4.56106 6.57527C4.27896 7.25632 4.20515 8.00574 4.34896 8.72874C4.49278 9.45174 4.84776 10.1159 5.36901 10.6371C5.89027 11.1584 6.55439 11.5134 7.2774 11.6572C8.0004 11.801 8.74981 11.7272 9.43087 11.4451C10.1119 11.163 10.694 10.6853 11.1036 10.0723C11.5131 9.45938 11.7317 8.73877 11.7317 8.0016C11.7317 7.01309 11.339 6.06507 10.6401 5.36608C9.94107 4.6671 8.99305 4.27441 8.00453 4.27441ZM8.00453 10.421C7.52603 10.421 7.05827 10.2791 6.66041 10.0132C6.26255 9.74738 5.95246 9.36953 5.76934 8.92745C5.58623 8.48537 5.53832 7.99892 5.63167 7.52961C5.72502 7.0603 5.95544 6.62921 6.29379 6.29086C6.63215 5.95251 7.06323 5.72209 7.53254 5.62874C8.00185 5.53538 8.4883 5.5833 8.93038 5.76641C9.37246 5.94953 9.75031 6.25962 10.0162 6.65748C10.282 7.05534 10.4239 7.5231 10.4239 8.0016C10.4239 8.64326 10.169 9.25863 9.71528 9.71234C9.26156 10.1661 8.64619 10.421 8.00453 10.421Z" fill="white"/>
<path d="M11.8768 4.99779C12.3578 4.99779 12.7478 4.60785 12.7478 4.12683C12.7478 3.6458 12.3578 3.25586 11.8768 3.25586C11.3958 3.25586 11.0059 3.6458 11.0059 4.12683C11.0059 4.60785 11.3958 4.99779 11.8768 4.99779Z" fill="white"/>
</svg>
