<svg width="22" height="22" viewBox="0 0 22 22" fill="none" xmlns="http://www.w3.org/2000/svg">
<path d="M1.625 3.70833C1.625 2.55774 2.55774 1.625 3.70833 1.625H7.12421C7.57257 1.625 7.97064 1.91191 8.11242 2.33726L9.67264 7.01793C9.83657 7.50971 9.61394 8.0472 9.15028 8.27903L6.79896 9.45468C7.94713 12.0013 9.99873 14.0529 12.5453 15.201L13.721 12.8497C13.9528 12.3861 14.4903 12.1634 14.9821 12.3274L19.6627 13.8876C20.0881 14.0294 20.375 14.4274 20.375 14.8758V18.2917C20.375 19.4423 19.4423 20.375 18.2917 20.375H17.25C8.62055 20.375 1.625 13.3794 1.625 4.75V3.70833Z" stroke="#13111A" stroke-width="2" stroke-linecap="round" stroke-linejoin="round"/>
</svg>
