<svg width="20" height="22" viewBox="0 0 20 22" fill="none" xmlns="http://www.w3.org/2000/svg">
<path d="M15.8919 15.8509C14.9025 16.8403 12.818 18.9248 11.4128 20.33C10.6318 21.111 9.36633 21.1104 8.58528 20.3294C7.20445 18.9485 5.16156 16.9057 4.10679 15.8509C0.852423 12.5965 0.852423 7.32015 4.10679 4.06578C7.36116 0.811408 12.6375 0.811408 15.8919 4.06578C19.1463 7.32015 19.1463 12.5965 15.8919 15.8509Z" stroke="#13111A" stroke-width="2" stroke-linecap="round" stroke-linejoin="round"/>
<path d="M13.1243 9.95833C13.1243 11.6842 11.7252 13.0833 9.99935 13.0833C8.27346 13.0833 6.87435 11.6842 6.87435 9.95833C6.87435 8.23244 8.27346 6.83333 9.99935 6.83333C11.7252 6.83333 13.1243 8.23244 13.1243 9.95833Z" stroke="#13111A" stroke-width="2" stroke-linecap="round" stroke-linejoin="round"/>
</svg>
