<svg width="13" height="11" viewBox="0 0 13 11" fill="none" xmlns="http://www.w3.org/2000/svg">
<path d="M12.6518 1.76691C12.2028 1.96645 11.7289 2.09116 11.2301 2.16598C11.7289 1.86668 12.128 1.39279 12.3026 0.819124C11.8287 1.09348 11.3049 1.29302 10.7312 1.41773C10.2823 0.943833 9.63379 0.644531 8.93542 0.644531C7.58857 0.644531 6.49113 1.74197 6.49113 3.08883C6.49113 3.28836 6.51607 3.46295 6.56595 3.63755C4.54567 3.53778 2.72492 2.56505 1.50277 1.06854C1.30323 1.44267 1.17852 1.84174 1.17852 2.29069C1.17852 3.13871 1.60253 3.88697 2.27596 4.33592C1.87689 4.31098 1.50277 4.21121 1.15358 4.03662V4.06156C1.15358 5.25876 2.0016 6.25644 3.12398 6.48091C2.92445 6.5308 2.69997 6.55574 2.4755 6.55574C2.32585 6.55574 2.15125 6.5308 2.0016 6.50585C2.32585 7.47859 3.22375 8.2019 4.29625 8.2019C3.44823 8.85038 2.40067 9.24945 1.25335 9.24945C1.05381 9.24945 0.85428 9.24945 0.679688 9.22451C1.77713 9.92288 3.04916 10.322 4.4459 10.322C8.96037 10.322 11.4296 6.58068 11.4296 3.33825C11.4296 3.23848 11.4296 3.11377 11.4296 3.014C11.9035 2.68976 12.3275 2.26575 12.6518 1.76691Z" fill="white"/>
</svg>
