<svg width="15" height="15" viewBox="0 0 15 15" fill="none" xmlns="http://www.w3.org/2000/svg">
<path fillRule="evenodd" clipRule="evenodd" d="M7.65252 0.741943C3.80508 0.741943 0.709778 3.83725 0.709778 7.68469C0.709778 10.7511 2.70582 13.3546 5.45399 14.2803C5.80112 14.3382 5.91684 14.1357 5.91684 13.9332C5.91684 13.7596 5.91684 13.3257 5.91684 12.7471C3.97865 13.181 3.57366 11.8214 3.57366 11.8214C3.25545 11.0114 2.7926 10.8089 2.7926 10.8089C2.15618 10.375 2.85046 10.375 2.85046 10.375C3.54473 10.4329 3.9208 11.0982 3.9208 11.0982C4.52829 12.1685 5.54077 11.8503 5.94576 11.6768C6.00362 11.2139 6.17719 10.9246 6.37969 10.7511C4.8465 10.5775 3.22652 9.97001 3.22652 7.30862C3.22652 6.55649 3.48688 5.92007 3.94973 5.45722C3.89187 5.28366 3.63152 4.58938 4.00758 3.60583C4.00758 3.60583 4.58614 3.43226 5.91684 4.32903C6.46647 4.18439 7.07396 4.0976 7.65252 4.0976C8.23108 4.0976 8.83858 4.18439 9.38821 4.32903C10.7189 3.43226 11.2975 3.60583 11.2975 3.60583C11.6735 4.56045 11.4421 5.25473 11.3553 5.45722C11.7892 5.949 12.0785 6.55649 12.0785 7.30862C12.0785 9.97001 10.4585 10.5486 8.89643 10.7221C9.15678 10.9246 9.35928 11.3586 9.35928 11.995C9.35928 12.9207 9.35928 13.6728 9.35928 13.9042C9.35928 14.0778 9.47499 14.3092 9.85106 14.2514C12.5992 13.3546 14.5953 10.7511 14.5953 7.68469C14.5953 3.83725 11.5 0.741943 7.65252 0.741943Z" fill="white"/>
</svg>
