<svg width="16" height="16" viewBox="0 0 16 16" fill="none" xmlns="http://www.w3.org/2000/svg">
<path d="M8.00214 2.04978C9.94005 2.04978 10.1695 2.05704 10.9351 2.09194C11.3954 2.09758 11.8513 2.1821 12.283 2.34183C12.5961 2.46257 12.8804 2.64753 13.1177 2.8848C13.355 3.12207 13.5399 3.4064 13.6607 3.71948C13.8204 4.1512 13.9049 4.60711 13.9106 5.0674C13.9451 5.83296 13.9527 6.06245 13.9527 8.00035C13.9527 9.93826 13.9455 10.1677 13.9106 10.9333C13.9049 11.3936 13.8204 11.8495 13.6607 12.2812C13.5399 12.5943 13.355 12.8786 13.1177 13.1159C12.8804 13.3532 12.5961 13.5381 12.283 13.6589C11.8513 13.8186 11.3954 13.9031 10.9351 13.9088C10.1699 13.9433 9.94039 13.9509 8.00214 13.9509C6.0639 13.9509 5.8344 13.9437 5.06919 13.9088C4.60891 13.9031 4.15299 13.8186 3.72127 13.6589C3.40819 13.5381 3.12386 13.3532 2.88659 13.1159C2.64932 12.8786 2.46436 12.5943 2.34362 12.2812C2.18389 11.8495 2.09937 11.3936 2.09373 10.9333C2.05917 10.1677 2.05157 9.93826 2.05157 8.00035C2.05157 6.06245 2.05883 5.83296 2.09373 5.0674C2.09937 4.60711 2.18389 4.1512 2.34362 3.71948C2.46436 3.4064 2.64932 3.12207 2.88659 2.8848C3.12386 2.64753 3.40819 2.46257 3.72127 2.34183C4.15299 2.1821 4.60891 2.09758 5.06919 2.09194C5.83475 2.05738 6.06424 2.04978 8.00214 2.04978ZM8.00214 0.741943C6.0321 0.741943 5.78394 0.750238 5.00975 0.785492C4.40734 0.797474 3.81134 0.911533 3.24707 1.12282C2.76303 1.30519 2.32461 1.59099 1.9624 1.96026C1.59279 2.3226 1.30675 2.76127 1.12426 3.24563C0.912978 3.80989 0.798919 4.4059 0.786937 5.0083C0.752375 5.7818 0.74408 6.02996 0.74408 8.00001C0.74408 9.97005 0.752374 10.2182 0.787628 10.9924C0.79961 11.5948 0.91367 12.1908 1.12496 12.7551C1.30724 13.2394 1.59304 13.678 1.9624 14.0404C2.32481 14.4098 2.76347 14.6956 3.24777 14.8779C3.81203 15.0892 4.40804 15.2032 5.01044 15.2152C5.78463 15.2498 6.03175 15.2588 8.00284 15.2588C9.97392 15.2588 10.221 15.2505 10.9952 15.2152C11.5976 15.2032 12.1936 15.0892 12.7579 14.8779C13.2399 14.6911 13.6776 14.4057 14.043 14.04C14.4084 13.6744 14.6935 13.2365 14.88 12.7544C15.0913 12.1901 15.2054 11.5941 15.2174 10.9917C15.2519 10.2182 15.2602 9.97005 15.2602 8.00001C15.2602 6.02996 15.2519 5.7818 15.2167 5.00761C15.2047 4.40521 15.0906 3.8092 14.8793 3.24494C14.697 2.76065 14.4112 2.32198 14.0419 1.95957C13.6795 1.59021 13.2408 1.30441 12.7565 1.12213C12.1923 0.910842 11.5963 0.796783 10.9938 0.784801C10.2203 0.750238 9.97219 0.741943 8.00214 0.741943Z" fill="white"/>
<path d="M8.0035 4.27417C7.26633 4.27417 6.54571 4.49277 5.93278 4.90231C5.31985 5.31186 4.84213 5.89397 4.56002 6.57503C4.27792 7.25608 4.20411 8.00549 4.34792 8.7285C4.49174 9.4515 4.84672 10.1156 5.36798 10.6369C5.88923 11.1581 6.55335 11.5131 7.27636 11.6569C7.99936 11.8007 8.74878 11.7269 9.42983 11.4448C10.1109 11.1627 10.693 10.685 11.1025 10.0721C11.5121 9.45914 11.7307 8.73853 11.7307 8.00136C11.7307 7.01285 11.338 6.06482 10.639 5.36584C9.94003 4.66686 8.99201 4.27417 8.0035 4.27417ZM8.0035 10.4207C7.52499 10.4207 7.05724 10.2788 6.65938 10.013C6.26151 9.74714 5.95142 9.36928 5.7683 8.92721C5.58519 8.48513 5.53728 7.99867 5.63063 7.52937C5.72398 7.06006 5.9544 6.62897 6.29275 6.29062C6.63111 5.95226 7.0622 5.72184 7.5315 5.62849C8.00081 5.53514 8.48726 5.58305 8.92934 5.76617C9.37142 5.94928 9.74927 6.25938 10.0151 6.65724C10.281 7.0551 10.4229 7.52286 10.4229 8.00136C10.4229 8.64301 10.168 9.25838 9.71424 9.7121C9.26052 10.1658 8.64515 10.4207 8.0035 10.4207Z" fill="white"/>
<path d="M11.8768 4.99755C12.3578 4.99755 12.7477 4.6076 12.7477 4.12658C12.7477 3.64556 12.3578 3.25562 11.8768 3.25562C11.3957 3.25562 11.0058 3.64556 11.0058 4.12658C11.0058 4.6076 11.3957 4.99755 11.8768 4.99755Z" fill="white"/>
</svg>
