<svg width="16" height="12" viewBox="0 0 16 12" fill="none" xmlns="http://www.w3.org/2000/svg">
<path d="M2 0C0.895431 0 0 0.895431 0 2V6C0 7.10457 0.895431 8 2 8L2 2H12C12 0.895431 11.1046 0 10 0H2Z" fill="#13111A"/>
<path fillRule="evenodd" clipRule="evenodd" d="M4 6C4 4.89543 4.89543 4 6 4H14C15.1046 4 16 4.89543 16 6V10C16 11.1046 15.1046 12 14 12H6C4.89543 12 4 11.1046 4 10V6ZM10 10C11.1046 10 12 9.10457 12 8C12 6.89543 11.1046 6 10 6C8.89543 6 8 6.89543 8 8C8 9.10457 8.89543 10 10 10Z" fill="#13111A"/>
</svg>
