<svg width="45" height="45" viewBox="0 0 45 45" fill="none" xmlns="http://www.w3.org/2000/svg">
<path d="M43.3929 10.4464H6.83036C4.83634 10.4464 3.21429 8.82359 3.21429 6.83036C3.21429 4.83712 4.83634 3.21429 6.83036 3.21429H32.9464C33.834 3.21429 34.5536 2.49547 34.5536 1.60714C34.5536 0.71882 33.834 0 32.9464 0H6.83036C3.0644 0 0 3.06362 0 6.83036V35.3571C0 40.6745 4.32547 45 9.64286 45H43.3929C44.2804 45 45 44.2812 45 43.3929V12.0536C45 11.1652 44.2804 10.4464 43.3929 10.4464ZM9.64286 41.7857C6.0982 41.7857 3.21429 38.9026 3.21429 35.3571V12.6014C4.26574 13.2627 5.49925 13.6607 6.83036 13.6607H41.7857V41.7857H9.64286Z" fill="white"/>
<path d="M5.22339 6.83047C5.22339 7.71879 5.94299 8.43761 6.83053 8.43761H38.1698C39.0574 8.43761 39.777 7.71879 39.777 6.83047C39.777 5.94215 39.0574 5.22333 38.1698 5.22333H6.83053C5.94299 5.22333 5.22339 5.94215 5.22339 6.83047Z" fill="white"/>
<path d="M31.2754 29.0438C31.3466 28.6621 31.2324 28.2919 31.0682 27.9524L23.8635 16.4246C23.275 15.4861 21.7259 15.4861 21.1373 16.4246L13.9327 27.9524C13.6106 28.5323 13.6399 29.2378 14.0221 29.784L21.2268 39.149C21.5305 39.5446 22.0013 39.7768 22.5004 39.7768C22.9995 39.7768 23.4704 39.5446 23.7741 39.149L30.9787 29.784C31.109 29.5516 31.2526 29.3149 31.2754 29.0438ZM22.5004 20.3091L27.2256 27.8704L22.5004 29.288L17.7752 27.8704L22.5004 20.3091ZM22.5004 35.5345L19.6095 31.7772L22.039 32.5055C22.3388 32.5965 22.6621 32.5965 22.9619 32.5055L25.3914 31.7772L22.5004 35.5345Z" fill="white"/>
</svg>
