<svg width="20" height="22" viewBox="0 0 20 22" fill="none" xmlns="http://www.w3.org/2000/svg">
<path d="M15.8929 15.8509C14.9034 16.8403 12.819 18.9248 11.4138 20.33C10.6327 21.111 9.36731 21.1104 8.58626 20.3294C7.20543 18.9485 5.16254 16.9057 4.10777 15.8509C0.8534 12.5965 0.8534 7.32015 4.10777 4.06578C7.36214 0.811408 12.6385 0.811408 15.8929 4.06578C19.1473 7.32015 19.1473 12.5965 15.8929 15.8509Z" stroke="white" stroke-width="2" stroke-linecap="round" stroke-linejoin="round"/>
<path d="M13.1253 9.95833C13.1253 11.6842 11.7262 13.0833 10.0003 13.0833C8.27444 13.0833 6.87533 11.6842 6.87533 9.95833C6.87533 8.23244 8.27444 6.83333 10.0003 6.83333C11.7262 6.83333 13.1253 8.23244 13.1253 9.95833Z" stroke="white" stroke-width="2" stroke-linecap="round" stroke-linejoin="round"/>
</svg>
