<svg width="41" height="45" viewBox="0 0 41 45" fill="none" xmlns="http://www.w3.org/2000/svg">
<path d="M39.4221 5.78276L22.9278 0.41887C21.2076 -0.139885 19.3257 -0.139885 17.5992 0.42044L4.87969 4.55774L1.09868 5.81808C0.442609 6.03703 0 6.65072 0 7.34288V11.3185C0 24.173 6.11021 35.91 16.3452 42.7155L19.3759 44.7308C19.6459 44.9105 19.9551 45 20.2659 45C20.5766 45 20.8858 44.9105 21.1558 44.7308L24.1866 42.7155C34.4215 35.91 40.5317 24.1613 40.5317 11.2871V7.31149C40.5317 6.6154 40.0828 5.99857 39.4221 5.78276ZM37.3173 11.2871C37.3173 23.0822 31.7439 33.8312 22.4067 40.0395L20.2659 41.463L18.125 40.0395C8.78784 33.8312 3.21441 23.094 3.21441 11.3185V8.5012L18.5943 3.4779C19.6741 3.12632 20.8591 3.12632 21.9327 3.47633L37.3173 8.47923V11.2871Z" fill="white"/>
<path d="M19.2865 5.62628L6.57792 9.75888C5.91715 9.97469 5.46826 10.6229 5.46826 11.319C5.46826 22.3364 10.665 32.3704 19.3712 38.1589C19.6412 38.3386 19.9504 38.4281 20.2611 38.4281C20.5719 38.4281 20.8811 38.3386 21.1511 38.1589C29.8573 32.3704 35.054 22.3364 35.054 11.319V11.2876C35.054 10.5915 34.6051 9.97469 33.9444 9.75888L21.2358 5.62707C20.5986 5.41832 19.9237 5.4191 19.2865 5.62628ZM20.2611 34.8644C13.2846 29.8058 9.03582 21.5736 8.70308 12.4467L20.2407 8.68374L31.8192 12.4483C31.4943 21.5587 27.244 29.8011 20.2611 34.8644Z" fill="white"/>
<path d="M25.3529 17.6552C24.7251 17.0259 23.7081 17.0274 23.0803 17.6537L19.1752 21.5548L17.4425 19.8243C16.8147 19.1981 15.796 19.1965 15.1682 19.8259C14.542 20.4537 14.542 21.4716 15.1698 22.0986L18.0389 24.9638C18.3528 25.2769 18.764 25.4339 19.1752 25.4339C19.5865 25.4339 19.9977 25.2769 20.3116 24.9638L25.3529 19.9279C25.9808 19.3009 25.9808 18.2831 25.3529 17.6552Z" fill="white"/>
</svg>
