<svg width="45" height="45" viewBox="0 0 45 45" fill="none" xmlns="http://www.w3.org/2000/svg">
<path d="M27.2353 21.6253C27.4174 21.1719 27.5238 20.68 27.5238 20.1623V19.5651C27.5238 17.3898 25.7534 15.6194 23.5781 15.6194H23.4761V15.5888C23.4761 14.7013 22.7573 13.9817 21.8689 13.9817C20.9806 13.9817 20.2618 14.7013 20.2618 15.5888V15.6194H17.7004C16.8121 15.6194 16.0933 16.339 16.0933 17.2266C16.0933 18.0774 16.7596 18.7567 17.5968 18.8128V26.1872C16.7596 26.2433 16.0933 26.9226 16.0933 27.7735C16.0933 28.661 16.8121 29.3806 17.7004 29.3806H20.2618V29.4112C20.2618 30.2987 20.9806 31.0183 21.8689 31.0183C22.7573 31.0183 23.4761 30.2987 23.4761 29.4112V29.3806H24.9608C27.1361 29.3806 28.9065 27.6102 28.9065 25.4349V24.8378C28.9065 23.5109 28.2429 22.3408 27.2353 21.6253ZM24.3095 19.5651V20.1623C24.3095 20.5649 23.9814 20.8929 23.5781 20.8929H20.8111V18.8337H23.5781C23.9814 18.8337 24.3095 19.1617 24.3095 19.5651ZM25.6922 25.4349C25.6922 25.8383 25.3642 26.1663 24.9608 26.1663H20.8111V24.1072H24.9608C25.3642 24.1072 25.6922 24.4352 25.6922 24.8378V25.4349Z" fill="white"/>
<path d="M43.3929 24.1071C44.2812 24.1071 45 23.3875 45 22.5C45 21.6125 44.2812 20.8929 43.3929 20.8929H36.4476C36.1417 18.2229 35.0838 15.7821 33.4921 13.7799L35.9692 11.3034H43.3929C44.2812 11.3034 45 10.5838 45 9.69622C45 8.80868 44.2812 8.08908 43.3929 8.08908H35.3038C34.8769 8.08908 34.4688 8.25858 34.1675 8.55992L31.2194 11.5074C29.2175 9.91604 26.7768 8.85832 24.1071 8.55237V1.60714C24.1071 0.719604 23.3883 0 22.5 0C21.6117 0 20.8929 0.719604 20.8929 1.60714V8.55237C18.2232 8.85832 15.7825 9.91604 13.7806 11.5074L10.8325 8.55992C10.5312 8.25858 10.1231 8.08908 9.69622 8.08908H1.60714C0.71882 8.08908 0 8.80868 0 9.69622C0 10.5838 0.71882 11.3034 1.60714 11.3034H9.03076L11.5079 13.7799C9.91624 15.7821 8.85832 18.2229 8.55237 20.8929H1.60714C0.71882 20.8929 0 21.6125 0 22.5C0 23.3875 0.71882 24.1071 1.60714 24.1071H8.55237C8.85832 26.7771 9.91624 29.2179 11.5079 31.2201L9.03076 33.6966H1.60714C0.71882 33.6966 0 34.4162 0 35.3038C0 36.1913 0.71882 36.9109 1.60714 36.9109H9.69622C10.1231 36.9109 10.5312 36.7414 10.8325 36.4401L13.7806 33.4926C15.7825 35.084 18.2232 36.1417 20.8929 36.4476V43.3929C20.8929 44.2804 21.6117 45 22.5 45C23.3883 45 24.1071 44.2804 24.1071 43.3929V36.4476C26.7768 36.1417 29.2175 35.084 31.2194 33.4926L34.1675 36.4401C34.4688 36.7414 34.8769 36.9109 35.3038 36.9109H43.3929C44.2812 36.9109 45 36.1913 45 35.3038C45 34.4162 44.2812 33.6966 43.3929 33.6966H35.9692L33.4921 31.2201C35.0838 29.2179 36.1417 26.7771 36.4476 24.1071H43.3929ZM22.5 33.3325C16.5266 33.3325 11.6675 28.4734 11.6675 22.5C11.6675 16.5266 16.5266 11.6675 22.5 11.6675C28.4734 11.6675 33.3325 16.5266 33.3325 22.5C33.3325 28.4734 28.4734 33.3325 22.5 33.3325Z" fill="white"/>
</svg>
