<svg width="45" height="45" viewBox="0 0 45 45" fill="none" xmlns="http://www.w3.org/2000/svg">
<path d="M41.3416 0H3.65923C1.64167 0 0 1.64167 0 3.65923V31.4115C0 33.7837 1.93045 35.7142 4.30272 35.7142H16.6319C16.9654 37.7225 16.9654 39.7774 16.6319 41.7857H13.4551C12.5676 41.7857 11.848 42.5053 11.848 43.3929C11.848 44.2804 12.5676 45 13.4551 45H31.5449C32.4332 45 33.152 44.2804 33.152 43.3929C33.152 42.5053 32.4332 41.7857 31.5449 41.7857H28.3672C28.0339 39.7773 28.0339 37.7226 28.3672 35.7142H40.6965C43.0695 35.7142 45 33.7837 45 31.4115V3.65923C45 1.64167 43.3583 0 41.3416 0ZM41.7857 31.4115C41.7857 32.0118 41.2976 32.4999 40.6965 32.4999H4.30272C3.70239 32.4999 3.21429 32.0118 3.21429 31.4115V3.65923C3.21429 3.41361 3.41361 3.21429 3.65923 3.21429H41.3416C41.5864 3.21429 41.7857 3.41361 41.7857 3.65923V31.4115ZM25.0849 41.7857H19.9143C20.1968 39.7752 20.1968 37.7247 19.9143 35.7142H25.0849C24.8024 37.7247 24.8024 39.7752 25.0849 41.7857Z" fill="white"/>
<path d="M36.161 25.986H8.83956C7.95203 25.986 7.23242 26.7056 7.23242 27.5931C7.23242 28.4806 7.95203 29.2002 8.83956 29.2002H36.161C37.0493 29.2002 37.7681 28.4806 37.7681 27.5931C37.7681 26.7056 37.0493 25.986 36.161 25.986Z" fill="white"/>
<path d="M15.995 23.8984C16.3002 24.2696 16.7554 24.4846 17.2357 24.4846C17.7159 24.4846 18.1711 24.2696 18.4763 23.8984L23.0254 18.3715L24.8539 20.5938C25.1537 20.958 25.5978 21.1722 26.0687 21.18C26.5222 21.1753 26.9915 20.9886 27.3023 20.6339L37.3673 9.18219C37.9527 8.51516 37.8884 7.49971 37.2214 6.9143C36.5559 6.32888 35.5373 6.39245 34.9535 7.06026L26.1361 17.0923L24.2669 14.8213C23.9609 14.4501 23.5057 14.2351 23.0254 14.2351C22.5452 14.2351 22.09 14.4501 21.7848 14.8213L17.2357 20.3482L13.9523 16.3594C13.3873 15.6735 12.3758 15.5747 11.6907 16.1397C11.0048 16.7031 10.9067 17.7162 11.471 18.4013L15.995 23.8984Z" fill="white"/>
</svg>
