<svg width="45" height="45" viewBox="0 0 45 45" fill="none" xmlns="http://www.w3.org/2000/svg">
<path d="M25.6421 12.8211C25.6421 8.99536 23.949 5.56546 21.2831 3.21429H30.5679V12.1924L29.5218 11.1456C28.4917 10.115 26.7298 10.8445 26.7298 12.3017C26.7298 12.7353 26.9021 13.1512 27.2087 13.458L31.0227 17.2719C31.6614 17.9105 32.6967 17.9105 33.3353 17.2719L37.1492 13.458C37.456 13.1512 37.6282 12.7353 37.6282 12.3017C37.6282 10.8445 35.8663 10.115 34.8363 11.1456L33.7822 12.2003V1.60714C33.7822 0.719605 33.0626 0 32.1751 0H12.825C12.8247 0 12.8245 0.000196185 12.8242 0.000196185C12.8231 0.000196185 12.8221 0 12.8211 0C5.75135 0 0 5.75135 0 12.8211C0 19.8908 5.75135 25.6421 12.8211 25.6421C19.8908 25.6421 25.6421 19.8908 25.6421 12.8211ZM12.8211 3.21429C18.118 3.21429 22.4278 7.52407 22.4278 12.8211C22.4278 18.118 18.118 22.4278 12.8211 22.4278C7.52407 22.4278 3.21429 18.118 3.21429 12.8211C3.21429 7.52407 7.52407 3.21429 12.8211 3.21429Z" fill="white"/>
<path d="M8.14713 16.1616C7.36328 16.2684 6.74951 16.9133 6.74951 17.7265C6.74951 18.614 7.46912 19.3336 8.35666 19.3336H10.6439C10.69 20.1797 11.3763 20.8568 12.234 20.8568C13.0918 20.8568 13.7781 20.1797 13.8242 19.3336H15.1101C17.196 19.3336 18.8926 17.637 18.8926 15.5512V14.9956C18.8926 13.7535 18.2825 12.6588 17.3548 11.9689C17.5102 11.5557 17.6064 11.1134 17.6064 10.6466V10.091C17.6064 8.00512 15.9098 6.30852 13.8247 6.30852H13.8242C13.7781 5.46237 13.0918 4.78534 12.234 4.78534C11.3763 4.78534 10.69 5.46237 10.6439 6.30852H8.35666C7.46912 6.30852 6.74951 7.02812 6.74951 7.91566C6.74951 8.72885 7.36328 9.37371 8.14713 9.48053V16.1616ZM15.6783 15.5512C15.6783 15.8643 15.4232 16.1193 15.1101 16.1193H11.3614V14.4282H15.1101C15.4232 14.4282 15.6783 14.6825 15.6783 14.9956V15.5512ZM14.3921 10.091V10.6466C14.3921 10.9597 14.1378 11.2139 13.8247 11.2139H11.3614V9.52281H13.8247C14.1378 9.52281 14.3921 9.77785 14.3921 10.091Z" fill="white"/>
<path d="M32.1787 19.358C25.109 19.358 19.3577 25.1093 19.3577 32.179C19.3577 36.0047 21.0508 39.4346 23.7167 41.7858H14.4797V32.8556L15.478 33.8544C16.5081 34.8851 18.27 34.1556 18.27 32.6984C18.27 32.2647 18.0977 31.8488 17.791 31.5421L13.9771 27.7282C13.3384 27.0896 12.3031 27.0896 11.6645 27.7282L7.85057 31.5421C7.54383 31.8488 7.37158 32.2647 7.37158 32.6984C7.37158 34.1556 9.13352 34.8851 10.1636 33.8544L11.2655 32.7519V43.3929C11.2655 44.2805 11.9851 45.0001 12.8726 45.0001H32.1748C32.1751 45.0001 32.1753 44.9999 32.1756 44.9999C32.1767 44.9999 32.1777 45.0001 32.1787 45.0001C39.2484 45.0001 44.9998 39.2487 44.9998 32.179C44.9998 25.1093 39.2484 19.358 32.1787 19.358ZM32.1787 41.7858C26.8818 41.7858 22.572 37.476 22.572 32.179C22.572 26.882 26.8818 22.5723 32.1787 22.5723C37.4757 22.5723 41.7855 26.882 41.7855 32.179C41.7855 37.476 37.4757 41.7858 32.1787 41.7858Z" fill="white"/>
<path d="M36.4797 29.4513C36.4797 27.6093 35.329 26.0427 33.7182 25.4159C33.5599 24.6944 32.9474 24.1433 32.1786 24.1433C31.4097 24.1433 30.7973 24.6944 30.639 25.4159C29.0281 26.0427 27.8774 27.6093 27.8774 29.4513C27.8774 31.3635 29.1206 32.9718 30.8286 33.5461C30.8286 33.5461 31.7386 33.7862 32.1786 33.7862C32.7781 33.7862 33.2655 34.2892 33.2655 34.9068C33.2655 35.5252 32.7781 36.0282 32.1786 36.0282C31.5791 36.0282 31.0917 35.5252 31.0917 34.9068C31.0917 34.0192 30.3721 33.2996 29.4846 33.2996C28.597 33.2996 27.8774 34.0192 27.8774 34.9068C27.8774 36.7494 29.0283 38.3163 30.6392 38.943C30.7976 39.664 31.41 40.2148 32.1786 40.2148C32.9471 40.2148 33.5595 39.6641 33.718 38.9431C35.329 38.3164 36.4797 36.7494 36.4797 34.9068C36.4797 32.5165 34.5501 30.5719 32.1786 30.5719C31.5791 30.5719 31.0917 30.0689 31.0917 29.4513C31.0917 28.8337 31.5791 28.3307 32.1786 28.3307C32.7781 28.3307 33.2655 28.8337 33.2655 29.4513C33.2655 30.3388 33.9851 31.0584 34.8726 31.0584C35.7601 31.0584 36.4797 30.3388 36.4797 29.4513Z" fill="white"/>
</svg>
