<svg width="42" height="45" viewBox="0 0 42 45" fill="none" xmlns="http://www.w3.org/2000/svg">
<path d="M35.4372 0H6.34853C2.84781 0 0 2.8486 0 6.34853V38.6515C0 42.1514 2.84781 45 6.34853 45H35.4372C38.9371 45 41.7857 42.1514 41.7857 38.6515V6.34853C41.7857 2.8486 38.9371 0 35.4372 0ZM6.34853 41.7857C4.62054 41.7857 3.21429 40.3795 3.21429 38.6515V6.34853C3.21429 4.62054 4.62054 3.21429 6.34853 3.21429H22.58C24.308 3.21429 25.7143 4.62054 25.7143 6.34853V23.2643H23.754C22.8657 23.2643 22.1469 23.9832 22.1469 24.8715C22.1469 25.7598 22.8657 26.4786 23.754 26.4786H25.7143V38.6515C25.7143 40.3795 24.308 41.7857 22.58 41.7857H6.34853ZM38.5714 38.6515C38.5714 40.3795 37.1652 41.7857 35.4372 41.7857H28.0669C28.5999 40.857 28.9286 39.7966 28.9286 38.6515V26.4786H31.3846L30.3345 27.5281C29.3039 28.5581 30.0334 30.32 31.4905 30.32C31.9243 30.32 32.3402 30.1478 32.6469 29.841L36.4608 26.0271C37.0994 25.3885 37.0994 24.3532 36.4608 23.7145L32.6469 19.9006C32.3402 19.5939 31.9243 19.4216 31.4905 19.4216C30.0334 19.4216 29.3039 21.1835 30.3345 22.2136L31.3859 23.2643H28.9286V6.34853C28.9286 5.2034 28.5999 4.14292 28.0669 3.21429H35.4372C37.1652 3.21429 38.5714 4.62054 38.5714 6.34853V38.6515Z" fill="white"/>
<path d="M14.449 8.0357C15.3365 8.0357 16.0561 7.31688 16.0561 6.42855C16.0561 5.54023 15.3365 4.82141 14.449 4.82141H14.4325C13.545 4.82141 12.834 5.54023 12.834 6.42855C12.834 7.31688 13.5614 8.0357 14.449 8.0357Z" fill="white"/>
<path d="M17.3252 32.609C19.7108 32.609 21.6514 30.6691 21.6514 28.2835V27.5898C21.6514 26.0578 20.8459 24.7177 19.6413 23.949C19.894 23.3999 20.0443 22.7947 20.0443 22.1516V21.4579C20.0443 19.0723 18.1036 17.1324 15.718 17.1324H15.3374V16.8358C15.3374 15.9475 14.6178 15.2286 13.7303 15.2286C12.8428 15.2286 12.1232 15.9475 12.1232 16.8358V17.1324H8.88375C7.99622 17.1324 7.27661 17.8512 7.27661 18.7396C7.27661 19.6279 7.99622 20.3467 8.88375 20.3467H9.02344V29.3947H8.88375C7.99622 29.3947 7.27661 30.1135 7.27661 31.0019C7.27661 31.8902 7.99622 32.609 8.88375 32.609H12.1232V32.9072C12.1232 33.7955 12.8428 34.5144 13.7303 34.5144C14.6178 34.5144 15.3374 33.7955 15.3374 32.9072V32.609H17.3252ZM18.4372 28.2835C18.4372 28.8956 17.9381 29.3947 17.3252 29.3947H12.2377V26.4786H17.3252C17.9381 26.4786 18.4372 26.9777 18.4372 27.5898V28.2835ZM16.83 21.4579V22.1516C16.83 22.7653 16.3309 23.2644 15.718 23.2644H12.2377V20.3467H15.718C16.3309 20.3467 16.83 20.8458 16.83 21.4579Z" fill="white"/>
</svg>
