<svg width="18" height="18" viewBox="0 0 18 18" fill="none" xmlns="http://www.w3.org/2000/svg">
<path fillrule="evenodd" clipRule="evenodd" d="M9.0001 0.600098C9.66284 0.600098 10.2001 1.13736 10.2001 1.8001V7.8001H16.2001C16.8628 7.8001 17.4001 8.33736 17.4001 9.0001C17.4001 9.66284 16.8628 10.2001 16.2001 10.2001H10.2001V16.2001C10.2001 16.8628 9.66284 17.4001 9.0001 17.4001C8.33736 17.4001 7.8001 16.8628 7.8001 16.2001V10.2001H1.8001C1.13736 10.2001 0.600098 9.66284 0.600098 9.0001C0.600098 8.33735 1.13736 7.8001 1.8001 7.8001L7.8001 7.8001V1.8001C7.8001 1.13736 8.33736 0.600098 9.0001 0.600098Z" fill="#111827"/>
</svg>
