<svg width="88" height="25" viewBox="0 0 88 25" fill="none" xmlns="http://www.w3.org/2000/svg">
<path d="M6.93362 4.9298L1.93142 4.64265L3.28123 9.46411C4.27647 7.78439 5.50832 6.25688 6.93362 4.9298Z" fill="white"/>
<path d="M14.3876 3.87655L11.2132 -1.8154e-05L8.57766 4.25702C10.4878 3.85271 12.446 3.7256 14.3876 3.87655Z" fill="white"/>
<path d="M19.7845 9.03925L20.9931 4.17676L16.0051 4.6103C17.4714 5.89941 18.7444 7.39284 19.7845 9.03925Z" fill="white"/>
<path d="M19.5306 16.4695L23.8113 13.8656L19.9625 10.6632C20.097 12.611 19.9503 14.5678 19.5306 16.4695Z" fill="white"/>
<path d="M13.5676 20.5835L17.9079 23.0868L18.8674 18.1728C17.2238 19.2265 15.4371 20.038 13.5676 20.5835Z" fill="white"/>
<path d="M5.55863 18.8147L6.85428 23.6547L11.0094 20.8613C9.10237 20.4429 7.26566 19.752 5.55863 18.8147Z" fill="white"/>
<path d="M2.88089 11.8514L-8.78902e-05 15.9507L4.80859 17.3453C3.90587 15.6141 3.25723 13.7621 2.88089 11.8514Z" fill="white"/>
<path d="M8.77319 8.08958L5.78275 7.91792L6.5897 10.8003C7.18468 9.79613 7.92111 8.88294 8.77319 8.08958Z" fill="white"/>
<path d="M13.2291 7.45991L11.3314 5.1424L9.75579 7.68737C10.8977 7.44566 12.0684 7.36967 13.2291 7.45991Z" fill="white"/>
<path d="M16.4555 10.5462L17.1781 7.63933L14.1961 7.89851C15.0727 8.66917 15.8337 9.56198 16.4555 10.5462Z" fill="white"/>
<path d="M16.304 14.9882L18.8631 13.4316L16.5622 11.5171C16.6426 12.6815 16.5549 13.8514 16.304 14.9882Z" fill="white"/>
<path d="M12.739 17.4478L15.3338 18.9443L15.9074 16.0066C14.9248 16.6365 13.8567 17.1217 12.739 17.4478Z" fill="white"/>
<path d="M7.95096 16.3903L8.72553 19.2838L11.2096 17.6138C10.0695 17.3637 8.97147 16.9507 7.95096 16.3903Z" fill="white"/>
<path d="M6.35036 12.2274L4.62804 14.6781L7.50279 15.5119C6.96312 14.4769 6.57535 13.3697 6.35036 12.2274Z" fill="white"/>
<path d="M29.7251 19.5477V1.18262H41.8848V4.38396H33.608V8.76002H41.0778V11.9614H33.608V19.5477H29.7251Z" fill="white"/>
<path d="M52.3945 13.6831V5.7739H56.2146V19.5477H52.547V17.0459H52.4035C52.0926 17.8529 51.5755 18.5015 50.8522 18.9918C50.1348 19.482 49.259 19.7271 48.2247 19.7271C47.3041 19.7271 46.494 19.5178 45.7946 19.0994C45.0951 18.6809 44.5481 18.0861 44.1536 17.3149C43.765 16.5437 43.5677 15.62 43.5617 14.544V5.7739H47.3818V13.8624C47.3878 14.6755 47.606 15.3181 48.0364 15.7904C48.4668 16.2627 49.0437 16.4988 49.7671 16.4988C50.2274 16.4988 50.6579 16.3942 51.0584 16.185C51.459 15.9698 51.7818 15.6529 52.0269 15.2344C52.278 14.816 52.4005 14.2989 52.3945 13.6831Z" fill="white"/>
<path d="M65.4757 24.9999C64.2382 24.9999 63.177 24.8295 62.2923 24.4887C61.4135 24.154 60.714 23.6966 60.1939 23.1167C59.6738 22.5369 59.336 21.8852 59.1806 21.1619L62.7137 20.6866C62.8213 20.9616 62.9917 21.2187 63.2249 21.4578C63.458 21.6969 63.7659 21.8882 64.1485 22.0317C64.5371 22.1812 65.0094 22.2559 65.5653 22.2559C66.3963 22.2559 67.0808 22.0526 67.6189 21.6461C68.1629 21.2456 68.4349 20.573 68.4349 19.6284V17.1086H68.2735C68.1061 17.4912 67.855 17.8529 67.5202 18.1937C67.1854 18.5344 66.755 18.8124 66.2289 19.0276C65.7028 19.2429 65.0751 19.3505 64.3458 19.3505C63.3115 19.3505 62.37 19.1113 61.5211 18.6331C60.6781 18.1488 60.0056 17.4105 59.5034 16.4181C59.0072 15.4198 58.7591 14.1584 58.7591 12.6339C58.7591 11.0736 59.0132 9.77034 59.5213 8.72415C60.0295 7.67796 60.705 6.89482 61.548 6.37471C62.3969 5.8546 63.3265 5.59455 64.3368 5.59455C65.108 5.59455 65.7536 5.72607 66.2738 5.98911C66.7939 6.24618 67.2123 6.569 67.5292 6.95759C67.852 7.34019 68.1001 7.71682 68.2735 8.08747H68.4169V5.7739H72.2101V19.6822C72.2101 20.854 71.9232 21.8344 71.3493 22.6235C70.7754 23.4127 69.9803 24.0045 68.964 24.3991C67.9536 24.7996 66.7909 24.9999 65.4757 24.9999ZM65.5564 16.4809C66.1721 16.4809 66.6922 16.3285 67.1167 16.0236C67.5471 15.7127 67.8759 15.2703 68.1031 14.6964C68.3362 14.1165 68.4528 13.423 68.4528 12.616C68.4528 11.8089 68.3392 11.1095 68.1121 10.5176C67.8849 9.9198 67.5561 9.45649 67.1256 9.12769C66.6952 8.79888 66.1721 8.63448 65.5564 8.63448C64.9286 8.63448 64.3996 8.80486 63.9691 9.14562C63.5387 9.4804 63.2129 9.9467 62.9917 10.5445C62.7705 11.1423 62.6599 11.8328 62.6599 12.616C62.6599 13.4111 62.7705 14.0986 62.9917 14.6785C63.2189 15.2524 63.5447 15.6978 63.9691 16.0146C64.3996 16.3255 64.9286 16.4809 65.5564 16.4809Z" fill="white"/>
<path d="M84.0829 13.6831V5.7739H87.903V19.5477H84.2353V17.0459H84.0919C83.781 17.8529 83.2639 18.5015 82.5405 18.9918C81.8231 19.482 80.9473 19.7271 79.9131 19.7271C78.9924 19.7271 78.1824 19.5178 77.4829 19.0994C76.7835 18.6809 76.2365 18.0861 75.8419 17.3149C75.4533 16.5437 75.256 15.62 75.2501 14.544V5.7739H79.0702V13.8624C79.0761 14.6755 79.2943 15.3181 79.7248 15.7904C80.1552 16.2627 80.7321 16.4988 81.4555 16.4988C81.9158 16.4988 82.3462 16.3942 82.7468 16.185C83.1473 15.9698 83.4701 15.6529 83.7152 15.2344C83.9663 14.816 84.0889 14.2989 84.0829 13.6831Z" fill="white"/>
</svg>
