<svg width="99" height="25" viewBox="0 0 99 25" fill="none" xmlns="http://www.w3.org/2000/svg">
<path d="M20.9798 0V24.6509H15.9244L6.11459 10.4237H5.95811V24.6509H0V0H5.12759L14.8291 14.2032H15.0337V0H20.9798Z" fill="#13111A"/>
<path d="M33.3684 25C31.4346 25 29.7655 24.6188 28.3612 23.8565C26.965 23.0862 25.8897 21.9909 25.1354 20.5705C24.3891 19.1422 24.016 17.445 24.016 15.4791C24.016 13.5693 24.3932 11.9002 25.1474 10.4718C25.9017 9.03547 26.965 7.92008 28.3371 7.12566C29.7093 6.32322 31.3262 5.922 33.1879 5.922C34.5039 5.922 35.7075 6.12663 36.7989 6.53587C37.8902 6.94511 38.833 7.55095 39.6275 8.35339C40.4219 9.15583 41.0398 10.1468 41.4811 11.3264C41.9224 12.498 42.1431 13.8421 42.1431 15.3587V16.8272H26.0743V13.4088H36.6665C36.6584 12.7829 36.51 12.2252 36.2211 11.7357C35.9322 11.2462 35.535 10.865 35.0295 10.5922C34.532 10.3113 33.9582 10.1709 33.3083 10.1709C32.6503 10.1709 32.0605 10.3194 31.5389 10.6163C31.0173 10.9052 30.604 11.3024 30.2991 11.8079C29.9942 12.3054 29.8337 12.8711 29.8176 13.5051V16.9836C29.8176 17.7379 29.9661 18.3999 30.263 18.9697C30.5599 19.5314 30.9812 19.9687 31.5268 20.2817C32.0725 20.5946 32.7225 20.7511 33.4768 20.7511C33.9984 20.7511 34.4718 20.6789 34.8971 20.5344C35.3224 20.39 35.6875 20.1773 35.9924 19.8965C36.2973 19.6156 36.526 19.2706 36.6785 18.8613L42.0829 19.0178C41.8582 20.2295 41.3647 21.2847 40.6024 22.1834C39.8481 23.0741 38.8571 23.7683 37.6294 24.2658C36.4017 24.7553 34.9813 25 33.3684 25Z" fill="#13111A"/>
<path d="M49.8917 6.16273L52.9369 12.2532L56.0905 6.16273H62.0245L56.8609 15.4068L62.2171 24.6509H56.3312L52.9369 18.5123L49.6269 24.6509H43.6567L49.025 15.4068L43.9215 6.16273H49.8917Z" fill="#13111A"/>
<path d="M75.1474 6.16273V10.4959H63.484V6.16273H75.1474ZM65.9274 1.73327H71.8133V18.8373C71.8133 19.1984 71.8695 19.4913 71.9818 19.7159C72.1022 19.9326 72.2747 20.0891 72.4994 20.1854C72.7241 20.2736 72.9929 20.3178 73.3058 20.3178C73.5305 20.3178 73.7672 20.2977 74.016 20.2576C74.2728 20.2094 74.4654 20.1693 74.5938 20.1372L75.4845 24.3861C75.2036 24.4664 74.8064 24.5667 74.2928 24.687C73.7873 24.8074 73.1815 24.8836 72.4753 24.9157C71.0951 24.9799 69.9115 24.8195 68.9245 24.4343C67.9455 24.0411 67.1953 23.4312 66.6737 22.6047C66.1601 21.7782 65.9114 20.739 65.9274 19.4872V1.73327Z" fill="#13111A"/>
<circle cx="87.6611" cy="13.5981" r="8.55273" stroke="#13111A" stroke-width="5"/>
<circle cx="92.2903" cy="6.44743" r="6.44743" fill="#FF6B55"/>
</svg>
