<svg width="20" height="20" viewBox="0 0 20 20" fill="none" xmlns="http://www.w3.org/2000/svg">
<path fillrule="evenodd" clipRule="evenodd" d="M5.52081 2.14595C6.29249 2.08437 7.02508 1.78092 7.61428 1.2788C8.98925 0.107067 11.0115 0.107067 12.3865 1.2788C12.9757 1.78092 13.7083 2.08437 14.48 2.14595C16.2808 2.28965 17.7107 3.71963 17.8544 5.52042C17.916 6.2921 18.2195 7.02469 18.7216 7.61389C19.8933 8.98886 19.8933 11.0111 18.7216 12.3861C18.2195 12.9753 17.916 13.7079 17.8544 14.4796C17.7107 16.2804 16.2808 17.7104 14.48 17.8541C13.7083 17.9156 12.9757 18.2191 12.3865 18.7212C11.0115 19.8929 8.98925 19.8929 7.61428 18.7212C7.02508 18.2191 6.29249 17.9156 5.52081 17.8541C3.72002 17.7104 2.29004 16.2804 2.14634 14.4796C2.08476 13.7079 1.78131 12.9753 1.27919 12.3861C0.107456 11.0111 0.107456 8.98886 1.27919 7.61389C1.78131 7.02469 2.08476 6.2921 2.14634 5.52042C2.29004 3.71963 3.72002 2.28965 5.52081 2.14595ZM14.4489 8.44853C14.9175 7.9799 14.9175 7.2201 14.4489 6.75147C13.9803 6.28284 13.2205 6.28284 12.7519 6.75147L8.80039 10.7029L7.24892 9.15147C6.78029 8.68284 6.02049 8.68284 5.55186 9.15147C5.08323 9.6201 5.08323 10.3799 5.55186 10.8485L7.95186 13.2485C8.42049 13.7172 9.18029 13.7172 9.64892 13.2485L14.4489 8.44853Z" fill="white"/>
</svg>
