<svg width="21" height="21" viewBox="0 0 21 21" fill="none" xmlns="http://www.w3.org/2000/svg">
<path d="M8.6594 17.3188C10.5807 17.3184 12.4466 16.6752 13.96 15.4917L18.7184 20.25L20.2489 18.7195L15.4906 13.9611C16.6748 12.4475 17.3183 10.5812 17.3188 8.6594C17.3188 3.88482 13.434 0 8.6594 0C3.88482 0 0 3.88482 0 8.6594C0 13.434 3.88482 17.3188 8.6594 17.3188ZM8.6594 2.16485C12.2411 2.16485 15.1539 5.07766 15.1539 8.6594C15.1539 12.2411 12.2411 15.1539 8.6594 15.1539C5.07765 15.1539 2.16485 12.2411 2.16485 8.6594C2.16485 5.07766 5.07765 2.16485 8.6594 2.16485Z" fill="#13111A"/>
</svg>
