<svg width="28" height="28" viewBox="0 0 28 28" fill="none" xmlns="http://www.w3.org/2000/svg">
<path fillrule="evenodd" clipRule="evenodd" d="M14.5488 0.35899L18.544 8.8496L27.475 10.2115C27.7063 10.2474 27.898 10.4172 27.97 10.6496C28.0421 10.8821 27.9819 11.1371 27.8147 11.3079L21.3534 17.9155L22.879 27.2474C22.9191 27.4881 22.8248 27.7316 22.6359 27.8754C22.447 28.0193 22.1964 28.0383 21.9896 27.9245L14.0009 23.5195L6.01225 27.9258C5.8056 28.04 5.55479 28.0212 5.36578 27.8775C5.17677 27.7337 5.08253 27.49 5.12286 27.2493L6.6484 17.9155L0.185271 11.3079C0.0181122 11.1371 -0.0420606 10.8821 0.0299568 10.6496C0.101974 10.4172 0.293749 10.2474 0.524955 10.2115L9.45597 8.8496L13.453 0.35899C13.5548 0.139444 13.7676 0 14.0009 0C14.2343 0 14.4471 0.139444 14.5488 0.35899Z" fill="#00B67A"/>
</svg>
